<?xml version="1.0" encoding="UTF-8"?>
<svg id="Isolation_Mode" data-name="Isolation Mode" xmlns="http://www.w3.org/2000/svg" xmlns:xlink="http://www.w3.org/1999/xlink" viewBox="0 0 1920 480">
  <defs>
    <style>
      .cls-1 {
        stroke-dasharray: 0 0 0 0 7.11 11.85 18.96 11.85;
      }

      .cls-1, .cls-2, .cls-3, .cls-4, .cls-5, .cls-6, .cls-7, .cls-8, .cls-9, .cls-10, .cls-11, .cls-12, .cls-13, .cls-14, .cls-15, .cls-16, .cls-17, .cls-18, .cls-19, .cls-20, .cls-21, .cls-22, .cls-23, .cls-24, .cls-25, .cls-26, .cls-27, .cls-28, .cls-29, .cls-30, .cls-31, .cls-32 {
        fill: none;
        stroke-linecap: round;
      }

      .cls-1, .cls-2, .cls-3, .cls-4, .cls-5, .cls-6, .cls-7, .cls-8, .cls-9, .cls-10, .cls-11, .cls-12, .cls-13, .cls-14, .cls-17, .cls-18, .cls-19, .cls-20, .cls-21, .cls-22, .cls-23, .cls-24, .cls-25, .cls-26, .cls-27, .cls-28, .cls-29, .cls-30, .cls-31, .cls-32 {
        stroke-miterlimit: 10;
      }

      .cls-1, .cls-3, .cls-4, .cls-6, .cls-7, .cls-11, .cls-12, .cls-13, .cls-14, .cls-17, .cls-19, .cls-20, .cls-21, .cls-22, .cls-23, .cls-24, .cls-25, .cls-26, .cls-28, .cls-29, .cls-30, .cls-32 {
        stroke: #110f10;
      }

      .cls-1, .cls-3, .cls-12, .cls-15, .cls-17, .cls-20, .cls-21, .cls-22, .cls-23, .cls-24, .cls-25, .cls-26, .cls-28, .cls-29, .cls-30, .cls-32 {
        stroke-width: 3.3px;
      }

      .cls-2, .cls-4, .cls-5, .cls-6, .cls-7, .cls-8, .cls-9, .cls-10, .cls-11, .cls-13, .cls-14, .cls-18, .cls-19, .cls-27, .cls-31 {
        stroke-width: 3.59px;
      }

      .cls-2, .cls-15 {
        stroke: #ffce00;
      }

      .cls-3 {
        stroke-dasharray: 0 0 0 0 0 0 13.5 5.62 3.37 5.62 9 5.62;
      }

      .cls-33 {
        fill: url(#linear-gradient);
      }

      .cls-33, .cls-34 {
        opacity: .24;
      }

      .cls-4, .cls-5 {
        stroke-dasharray: 0 0 0 0 4.48 7.46 11.94 7.46;
      }

      .cls-5, .cls-9, .cls-18, .cls-27, .cls-31 {
        stroke: #1c174c;
      }

      .cls-6 {
        stroke-dasharray: 0 0 0 0 0 0 25.81 10.75 6.45 10.75 17.21 10.75;
      }

      .cls-7 {
        stroke-dasharray: 0 0 0 0 6.45 10.75 17.21 10.75;
      }

      .cls-35 {
        fill: #f9f3de;
      }

      .cls-36 {
        fill: #010101;
      }

      .cls-37 {
        fill: #686d81;
      }

      .cls-38 {
        fill: #f06523;
      }

      .cls-39 {
        fill: #fff;
      }

      .cls-40 {
        fill: #f16422;
      }

      .cls-41 {
        fill: #98b0f9;
      }

      .cls-42, .cls-43 {
        fill: #b4c7fc;
      }

      .cls-44 {
        fill: #dd5b26;
      }

      .cls-45 {
        fill: #1f4ab5;
      }

      .cls-46 {
        fill: #21b8ff;
      }

      .cls-47, .cls-48, .cls-49 {
        fill: #1c174c;
      }

      .cls-50 {
        fill: #4255c6;
      }

      .cls-51 {
        fill: #3e4a72;
      }

      .cls-52 {
        fill: #1a1a1a;
      }

      .cls-53 {
        fill: #8a6339;
      }

      .cls-54 {
        fill: #81544f;
      }

      .cls-55 {
        fill: #2a4abc;
      }

      .cls-56 {
        fill: #343f66;
      }

      .cls-57 {
        fill: #343489;
      }

      .cls-58 {
        fill: #575f80;
      }

      .cls-59 {
        fill: #495178;
      }

      .cls-60 {
        fill: #4e66d0;
      }

      .cls-8 {
        stroke: #4e66d0;
      }

      .cls-10 {
        stroke: #21b8ff;
      }

      .cls-12 {
        stroke-dasharray: 0 0 0 0 3.43 5.72 9.15 5.72;
      }

      .cls-13 {
        stroke-dasharray: 0 0 0 0 6.41 10.68 17.09 10.68;
      }

      .cls-14 {
        stroke-dasharray: 0 0 0 0 0 0 25.63 10.68 6.41 10.68 17.09 10.68;
      }

      .cls-15, .cls-16 {
        stroke-linejoin: round;
      }

      .cls-16 {
        stroke: #fff;
        stroke-width: 3.28px;
      }

      .cls-17 {
        stroke-dasharray: 0 0 0 0 0 0 28.44 11.85 7.11 11.85 18.96 11.85;
      }

      .cls-18, .cls-19 {
        stroke-dasharray: 0 0 0 0 0 0 17.91 7.46 4.48 7.46 11.94 7.46;
      }

      .cls-20 {
        stroke-dasharray: 0 0 0 0 0 0 13.04 5.43 3.26 5.43 8.69 5.43;
      }

      .cls-61, .cls-48 {
        opacity: .55;
      }

      .cls-22 {
        stroke-dasharray: 0 0 0 0 0 0 28.67 11.95 7.17 11.95 19.12 11.95;
      }

      .cls-23 {
        stroke-dasharray: 0 0 0 0 4.82 8.03 12.86 8.03;
      }

      .cls-24 {
        stroke-dasharray: 0 0 0 0 3.26 5.43 8.69 5.43;
      }

      .cls-25 {
        stroke-dasharray: 0 0 0 0 0 0 19.51 8.13 4.88 8.13 13.01 8.13;
      }

      .cls-26 {
        stroke-dasharray: 0 0 0 0 0 0 19.28 8.03 4.82 8.03 12.86 8.03;
      }

      .cls-27 {
        stroke-dasharray: 0 0 0 0 0 0 18.33 7.64 4.58 7.64 12.22 7.64;
      }

      .cls-28 {
        stroke-dasharray: 0 0 0 0 7.17 11.95 19.12 11.95;
      }

      .cls-62 {
        fill: url(#linear-gradient-3);
      }

      .cls-62, .cls-63, .cls-64, .cls-65 {
        opacity: .39;
      }

      .cls-63 {
        fill: url(#linear-gradient-2);
      }

      .cls-64 {
        fill: url(#linear-gradient-4);
      }

      .cls-65 {
        fill: url(#linear-gradient-5);
      }

      .cls-34 {
        fill: url(#linear-gradient-6);
      }

      .cls-29 {
        stroke-dasharray: 0 0 0 0 0 0 13.73 5.72 3.43 5.72 9.15 5.72;
      }

      .cls-30 {
        stroke-dasharray: 0 0 0 0 4.88 8.13 13.01 8.13;
      }

      .cls-49 {
        opacity: .43;
      }

      .cls-31 {
        stroke-dasharray: 0 0 0 0 4.58 7.64 12.22 7.64;
      }

      .cls-66 {
        fill: #dba756;
      }

      .cls-66, .cls-43 {
        opacity: .4;
      }

      .cls-32 {
        stroke-dasharray: 0 0 0 0 3.37 5.62 9 5.62;
      }
    </style>
    <linearGradient id="linear-gradient" x1="517.68" y1="369.57" x2="566.35" y2="280.76" gradientUnits="userSpaceOnUse">
      <stop offset="0" stop-color="#c11e59"/>
      <stop offset="1" stop-color="#f06523" stop-opacity="0"/>
    </linearGradient>
    <linearGradient id="linear-gradient-2" x1="547.72" y1="304.41" x2="439.72" y2="295.45" gradientUnits="userSpaceOnUse">
      <stop offset="0" stop-color="#f4a21d"/>
      <stop offset=".1" stop-color="#f3a01d" stop-opacity=".98"/>
      <stop offset=".23" stop-color="#f39c1d" stop-opacity=".91"/>
      <stop offset=".37" stop-color="#f3961e" stop-opacity=".81"/>
      <stop offset=".52" stop-color="#f28d1f" stop-opacity=".66"/>
      <stop offset=".68" stop-color="#f18220" stop-opacity=".47"/>
      <stop offset=".85" stop-color="#f07522" stop-opacity=".24"/>
      <stop offset="1" stop-color="#ef6724" stop-opacity="0"/>
    </linearGradient>
    <linearGradient id="linear-gradient-3" x1="-34.36" y1="585.17" x2="-55.55" y2="600.67" gradientTransform="translate(531.39 -292.96) rotate(4.01)" xlink:href="#linear-gradient-2"/>
    <linearGradient id="linear-gradient-4" x1="488.97" y1="279.54" x2="468.82" y2="286.66" xlink:href="#linear-gradient-2"/>
    <linearGradient id="linear-gradient-5" x1="541.66" y1="487.91" x2="416.87" y2="348.28" xlink:href="#linear-gradient-2"/>
    <linearGradient id="linear-gradient-6" x1="-617.01" y1="1191.97" x2="-493.74" y2="1191.97" gradientTransform="translate(1106.86 -750.56) rotate(9.85)" xlink:href="#linear-gradient"/>
  </defs>
  <path class="cls-43" d="m88.74,287.13C106.85,171.04,1063.46-7.71,1486.8,29.06c155.17,13.48-50.48,72.12-72.44,76.52,186.62-8.29,290.99-.21,380.52,40.71,147.61,67.45-191.31,206.82-866.57,245.96-675.27,39.15-857.67,10.96-839.56-105.12Z"/>
  <g>
    <path class="cls-42" d="m1901.41,354.82v-1.57c-.08-68.92-58.28-122.87-127.1-119.07-61,3.37-134.87-14.29-231.85-63.35-69.46-26.66-101.53-78.74-263.58,19.09-162.05,97.83-315.84,111.48-578.74-12.17-141.8-66.69-162.89,17.97-211.76,42.69-48.87,24.72-120.68-65.29-167.68-120.91-51.97-61.5-154.57,24.19-232.46,89.98-43.69,36.9-69.07,91.03-69.52,148.21l-.13,16.86h0c-.67,55.45,44.75,100.76,100.2,100.76h1687.81c55.68,0,94.81-45.14,94.81-100.81h0s0,.28,0,.28Z"/>
    <g>
      <g>
        <path class="cls-50" d="m618.64,277.65l98.43,18.25c4.69.79,8.13,4.85,8.13,9.61v149.84h-106.56v-177.7Z"/>
        <path class="cls-57" d="m474.68,291.95l141-14.1c5.87-.59,10.97,4.02,10.97,9.92v167.57h-160.95v-153.47c0-5.12,3.88-9.41,8.98-9.92Z"/>
        <g>
          <path id="path4212" class="cls-47" d="m647.41,343.23l-.03.21c-.07,1.51,1.14,2.86,2.8,3.11l51.21,7.49c1.78.26,3.41-.83,3.64-2.43,0-.06.02-.13.02-.19l.03-.23c.1-1.52-1.12-2.9-2.79-3.16l-51.18-7.49c-1.79-.26-3.44.83-3.67,2.45-.01.08-.02.16-.02.24h0Z"/>
          <path id="path4212-2" data-name="path4212" class="cls-47" d="m647.5,332.48l-.03.21c-.07,1.51,1.14,2.86,2.8,3.11l51.21,7.49c1.78.26,3.41-.83,3.64-2.43,0-.06.02-.13.02-.19l.03-.23c.1-1.52-1.12-2.9-2.79-3.16l-51.18-7.49c-1.79-.26-3.44.83-3.67,2.45-.01.08-.02.16-.02.24h0Z"/>
          <path id="path4212-3" data-name="path4212" class="cls-47" d="m647.59,321.73l-.03.21c-.07,1.51,1.14,2.86,2.8,3.11l51.21,7.49c1.78.26,3.41-.83,3.64-2.43,0-.06.02-.13.02-.19l.03-.23c.1-1.52-1.12-2.9-2.79-3.16l-51.18-7.49c-1.79-.26-3.44.83-3.67,2.45-.01.08-.02.16-.02.24h0Z"/>
          <path id="path4214" class="cls-47" d="m647.32,354l-.02.14c-.07,1.53,1.14,2.9,2.8,3.15l51.2,7.49c1.78.26,3.42-.85,3.66-2.48,0-.06.02-.13.02-.19l.02-.14c.1-1.55-1.11-2.94-2.79-3.2l-51.2-7.49c-1.78-.26-3.42.84-3.66,2.47-.01.08-.02.16-.02.25Z"/>
          <path id="path4216" class="cls-47" d="m647.44,364.86h0c-.09,1.57,1.12,2.97,2.78,3.22l50.87,7.44c1.76.27,3.4-.85,3.65-2.5.01-.08.02-.17.03-.25h0c.11-1.58-1.1-3-2.77-3.26l-50.97-7.46c-1.77-.22-3.37.94-3.57,2.6,0,.07-.01.14-.02.21h0Z"/>
        </g>
        <g>
          <line class="cls-9" x1="544.82" y1="329.68" x2="544.82" y2="341.31"/>
          <line class="cls-5" x1="544.82" y1="348.77" x2="544.82" y2="376.38"/>
          <line class="cls-18" x1="544.82" y1="380.11" x2="544.82" y2="433.09"/>
          <line class="cls-9" x1="544.82" y1="436.82" x2="544.82" y2="448.45"/>
        </g>
        <g>
          <line class="cls-9" x1="531.5" y1="329.68" x2="531.5" y2="341.31"/>
          <line class="cls-31" x1="531.5" y1="348.95" x2="531.5" y2="377.2"/>
          <line class="cls-27" x1="531.5" y1="381.01" x2="531.5" y2="435.23"/>
          <line class="cls-9" x1="531.5" y1="439.04" x2="531.5" y2="450.67"/>
        </g>
        <g>
          <line class="cls-11" x1="558.14" y1="328.57" x2="558.14" y2="340.2"/>
          <line class="cls-4" x1="558.14" y1="347.66" x2="558.14" y2="375.27"/>
          <line class="cls-19" x1="558.14" y1="379" x2="558.14" y2="431.98"/>
          <line class="cls-11" x1="558.14" y1="435.71" x2="558.14" y2="447.34"/>
        </g>
      </g>
      <line class="cls-8" x1="558.14" y1="336.54" x2="558.14" y2="359.59"/>
      <line class="cls-8" x1="531.5" y1="369.32" x2="531.5" y2="349.13"/>
      <g>
        <path class="cls-50" d="m333.51,139.44l137.54,25.5c6.56,1.1,11.36,6.78,11.36,13.43v276.52l-148.66.41-.25-315.86Z"/>
        <path class="cls-57" d="m132.01,158.88l197.03-19.7c8.21-.82,15.32,5.62,15.32,13.87v302.31H118.79s.67-282.61.67-282.61c0-7.16,5.43-13.16,12.55-13.87Z"/>
        <g>
          <path id="path4212-4" data-name="path4212" class="cls-47" d="m373.72,231.09l-.04.29c-.1,2.11,1.59,3.99,3.91,4.35l71.56,10.47c2.49.36,4.76-1.16,5.09-3.4.01-.09.02-.18.03-.27l.05-.32c.13-2.13-1.56-4.05-3.9-4.41l-71.52-10.47c-2.5-.37-4.8,1.16-5.14,3.42-.02.11-.03.22-.03.34h0Z"/>
          <path id="path4212-5" data-name="path4212" class="cls-47" d="m373.84,216.07l-.04.29c-.1,2.11,1.59,3.99,3.91,4.35l71.56,10.47c2.49.36,4.76-1.16,5.09-3.4.01-.09.02-.18.03-.27l.05-.32c.13-2.13-1.56-4.05-3.9-4.41l-71.52-10.47c-2.5-.37-4.8,1.16-5.14,3.42-.02.11-.03.22-.03.34h0Z"/>
          <path id="path4212-6" data-name="path4212" class="cls-47" d="m373.97,201.04l-.04.29c-.1,2.11,1.59,3.99,3.91,4.35l71.56,10.47c2.49.36,4.76-1.16,5.09-3.4.01-.09.02-.18.03-.27l.05-.32c.13-2.13-1.56-4.05-3.9-4.41l-71.52-10.47c-2.5-.37-4.8,1.16-5.14,3.42-.02.11-.03.22-.03.34h0Z"/>
          <path id="path4214-2" data-name="path4214" class="cls-47" d="m373.59,246.14l-.03.19c-.1,2.14,1.59,4.05,3.91,4.41l71.54,10.47c2.49.36,4.78-1.19,5.11-3.46.01-.09.02-.18.03-.27l.03-.19c.14-2.16-1.55-4.11-3.9-4.47l-71.54-10.47c-2.49-.37-4.78,1.18-5.11,3.46-.02.11-.03.23-.03.34Z"/>
          <path id="path4216-2" data-name="path4216" class="cls-47" d="m373.75,261.32h0c-.13,2.2,1.56,4.15,3.88,4.49l71.08,10.4c2.46.38,4.75-1.18,5.11-3.49.02-.12.03-.23.04-.35h0c.15-2.21-1.54-4.2-3.87-4.56l-71.22-10.42c-2.47-.31-4.7,1.32-4.99,3.64-.01.1-.02.19-.02.29h0Z"/>
        </g>
        <g>
          <line class="cls-11" x1="230.36" y1="212.16" x2="230.36" y2="223.78"/>
          <line class="cls-13" x1="230.36" y1="234.46" x2="230.36" y2="273.97"/>
          <line class="cls-14" x1="230.36" y1="279.31" x2="230.36" y2="436.28"/>
          <line class="cls-11" x1="230.36" y1="441.62" x2="230.36" y2="453.25"/>
        </g>
        <g>
          <line class="cls-11" x1="211.75" y1="212.16" x2="211.75" y2="223.78"/>
          <line class="cls-13" x1="211.75" y1="234.46" x2="211.75" y2="273.97"/>
          <line class="cls-14" x1="211.75" y1="279.31" x2="211.75" y2="436.28"/>
          <line class="cls-11" x1="211.75" y1="441.62" x2="211.75" y2="453.25"/>
        </g>
        <g>
          <line class="cls-11" x1="248.97" y1="210.61" x2="248.97" y2="222.23"/>
          <line class="cls-7" x1="248.97" y1="232.99" x2="248.97" y2="272.78"/>
          <line class="cls-6" x1="248.97" y1="278.16" x2="248.97" y2="436.24"/>
          <line class="cls-11" x1="248.97" y1="441.62" x2="248.97" y2="453.25"/>
        </g>
      </g>
      <line class="cls-2" x1="211.75" y1="277.01" x2="211.75" y2="285.58"/>
      <line class="cls-2" x1="230.36" y1="325.04" x2="230.36" y2="336.06"/>
      <line class="cls-2" x1="248.97" y1="360.55" x2="248.97" y2="355.65"/>
      <path class="cls-48" d="m690.25,363.5l-.18.19c-.66.7-.63,1.8.07,2.46l6.63,6.25c-.72,1.35-.81,2.68-.16,3.4l-.04.04,19.18,19.29c1.12,1.05,2.9,2.98,4.27,2.56l5.18,45.29.73-48.05-1.3,1.24.21-.23c1.57-1.67,1.49-4.29-.17-5.86l-21.98-20.73h0s0,0,0,0c-.74-.67-2.06-.49-3.35.31l-6.61-6.24c-.7-.66-1.8-.63-2.46.07Z"/>
    </g>
    <g>
      <line class="cls-16" x1="1662.76" y1="366.96" x2="1662.76" y2="373.52"/>
      <g>
        <path class="cls-50" d="m1392.6,221.27l-112.09,20.34c-5.18.87-8.97,5.35-8.97,10.6v203.14s117.53,0,117.53,0l3.53-234.08Z"/>
        <path class="cls-57" d="m1548.12,236.82l-155.51-15.55c-6.48-.65-12.1,4.44-12.1,10.95v223.13s177.52,0,177.52,0v-207.58c0-5.65-4.28-10.38-9.91-10.95Z"/>
        <g>
          <path id="path4212-7" data-name="path4212" class="cls-47" d="m1357.34,293.81l.03.23c.08,1.67-1.26,3.15-3.08,3.43l-56.48,8.26c-1.96.29-3.76-.91-4.02-2.69-.01-.07-.02-.14-.02-.21l-.04-.25c-.11-1.68,1.23-3.2,3.08-3.48l56.45-8.26c1.98-.29,3.79.92,4.05,2.7.01.09.02.18.03.27h0Z"/>
          <path id="path4212-8" data-name="path4212" class="cls-47" d="m1357.24,281.96l.03.23c.08,1.67-1.26,3.15-3.08,3.43l-56.48,8.26c-1.96.29-3.76-.91-4.02-2.69-.01-.07-.02-.14-.02-.21l-.04-.25c-.11-1.68,1.23-3.2,3.08-3.48l56.45-8.26c1.98-.29,3.79.92,4.05,2.7.01.09.02.18.03.27h0Z"/>
          <path id="path4212-9" data-name="path4212" class="cls-47" d="m1357.14,270.1l.03.23c.08,1.67-1.26,3.15-3.08,3.43l-56.48,8.26c-1.96.29-3.76-.91-4.02-2.69-.01-.07-.02-.14-.02-.21l-.04-.25c-.11-1.68,1.23-3.2,3.08-3.48l56.45-8.26c1.98-.29,3.79.92,4.05,2.7.01.09.02.18.03.27h0Z"/>
          <path id="path4214-3" data-name="path4214" class="cls-47" d="m1357.44,305.7l.02.15c.08,1.69-1.25,3.2-3.08,3.48l-56.47,8.26c-1.97.29-3.77-.94-4.03-2.73-.01-.07-.02-.14-.02-.21l-.02-.15c-.11-1.71,1.23-3.24,3.08-3.53l56.47-8.26c1.97-.29,3.77.93,4.04,2.73.01.09.02.18.03.27Z"/>
          <path id="path4216-3" data-name="path4216" class="cls-47" d="m1357.31,317.67h0c.1,1.73-1.23,3.28-3.06,3.55l-56.1,8.21c-1.94.3-3.75-.93-4.03-2.76-.01-.09-.02-.18-.03-.27h0c-.12-1.75,1.21-3.31,3.06-3.6l56.22-8.22c1.95-.24,3.71,1.04,3.94,2.87,0,.08.02.15.02.23h0Z"/>
        </g>
        <g>
          <line class="cls-21" x1="1470.49" y1="278.87" x2="1470.49" y2="290.5"/>
          <line class="cls-1" x1="1470.49" y1="302.35" x2="1470.49" y2="346.2"/>
          <line class="cls-17" x1="1470.49" y1="352.13" x2="1470.49" y2="436.28"/>
          <line class="cls-21" x1="1470.49" y1="442.2" x2="1470.49" y2="453.83"/>
        </g>
        <g>
          <line class="cls-21" x1="1485.18" y1="278.87" x2="1485.18" y2="290.5"/>
          <line class="cls-1" x1="1485.18" y1="302.35" x2="1485.18" y2="346.2"/>
          <line class="cls-17" x1="1485.18" y1="352.13" x2="1485.18" y2="436.28"/>
          <line class="cls-21" x1="1485.18" y1="442.2" x2="1485.18" y2="453.83"/>
        </g>
        <g>
          <line class="cls-21" x1="1455.8" y1="277.65" x2="1455.8" y2="289.28"/>
          <line class="cls-28" x1="1455.8" y1="301.22" x2="1455.8" y2="345.43"/>
          <line class="cls-22" x1="1455.8" y1="351.4" x2="1455.8" y2="436.23"/>
          <line class="cls-21" x1="1455.8" y1="442.2" x2="1455.8" y2="453.83"/>
        </g>
      </g>
      <line class="cls-10" x1="1485.18" y1="296.01" x2="1485.18" y2="319.18"/>
      <line class="cls-10" x1="1470.49" y1="343.76" x2="1470.49" y2="354.78"/>
      <line class="cls-10" x1="1455.8" y1="379.26" x2="1455.8" y2="374.36"/>
      <g>
        <path class="cls-50" d="m1624.93,160.8l-106.98,18.22c-4.97.83-8.61,5.14-8.61,10.17v266.15s112.63,0,112.63,0l2.96-294.54Z"/>
        <path class="cls-57" d="m1775.28,175.54l-147.82-14.78c-6.22-.62-11.61,4.26-11.61,10.51v284.08s168.95,0,168.95,0V186.04c0-5.43-4.11-9.97-9.51-10.51Z"/>
        <g>
          <path id="path4212-10" data-name="path4212" class="cls-47" d="m1591.85,228.86l.03.22c.07,1.6-1.21,3.02-2.96,3.3l-54.22,7.93c-1.88.28-3.61-.88-3.86-2.58,0-.07-.02-.13-.02-.2l-.04-.24c-.1-1.61,1.18-3.07,2.95-3.34l54.19-7.93c1.9-.28,3.64.88,3.89,2.59.01.08.02.17.03.26h0Z"/>
          <path id="path4212-11" data-name="path4212" class="cls-47" d="m1591.76,217.48l.03.22c.07,1.6-1.21,3.02-2.96,3.3l-54.22,7.93c-1.88.28-3.61-.88-3.86-2.58,0-.07-.02-.13-.02-.2l-.04-.24c-.1-1.61,1.18-3.07,2.95-3.34l54.19-7.93c1.9-.28,3.64.88,3.89,2.59.01.08.02.17.03.26h0Z"/>
          <path id="path4212-12" data-name="path4212" class="cls-47" d="m1591.66,206.09l.03.22c.07,1.6-1.21,3.02-2.96,3.3l-54.22,7.93c-1.88.28-3.61-.88-3.86-2.58,0-.07-.02-.13-.02-.2l-.04-.24c-.1-1.61,1.18-3.07,2.95-3.34l54.19-7.93c1.9-.28,3.64.88,3.89,2.59.01.08.02.17.03.26h0Z"/>
          <path id="path4214-4" data-name="path4214" class="cls-47" d="m1591.95,240.27l.02.15c.08,1.62-1.2,3.07-2.96,3.34l-54.21,7.93c-1.89.28-3.62-.9-3.87-2.62,0-.07-.02-.14-.02-.21l-.02-.15c-.11-1.64,1.18-3.11,2.95-3.39l54.21-7.93c1.89-.28,3.62.89,3.87,2.62.01.09.02.17.03.26Z"/>
          <path id="path4216-4" data-name="path4216" class="cls-47" d="m1591.82,251.76h0c.1,1.67-1.18,3.15-2.94,3.41l-53.86,7.88c-1.87.29-3.6-.9-3.87-2.65-.01-.09-.02-.18-.03-.26h0c-.11-1.68,1.16-3.18,2.93-3.46l53.97-7.9c1.87-.23,3.56,1,3.78,2.76,0,.07.02.15.02.22h0Z"/>
        </g>
        <g>
          <line class="cls-21" x1="1700.32" y1="212.91" x2="1700.32" y2="224.54"/>
          <line class="cls-23" x1="1700.32" y1="232.57" x2="1700.32" y2="262.3"/>
          <line class="cls-26" x1="1700.32" y1="266.32" x2="1700.32" y2="323.36"/>
          <line class="cls-21" x1="1700.32" y1="327.38" x2="1700.32" y2="339.01"/>
        </g>
        <g>
          <line class="cls-21" x1="1715.01" y1="214.13" x2="1715.01" y2="225.76"/>
          <line class="cls-30" x1="1715.01" y1="233.89" x2="1715.01" y2="263.97"/>
          <line class="cls-25" x1="1715.01" y1="268.04" x2="1715.01" y2="325.77"/>
          <line class="cls-21" x1="1715.01" y1="329.83" x2="1715.01" y2="341.46"/>
        </g>
        <g>
          <line class="cls-21" x1="1688.08" y1="211.69" x2="1688.08" y2="223.31"/>
          <line class="cls-30" x1="1688.08" y1="231.44" x2="1688.08" y2="261.53"/>
          <line class="cls-25" x1="1688.08" y1="265.59" x2="1688.08" y2="323.32"/>
          <line class="cls-21" x1="1688.08" y1="327.38" x2="1688.08" y2="339.01"/>
        </g>
        <g>
          <line class="cls-21" x1="1700.32" y1="358.6" x2="1700.32" y2="370.22"/>
          <line class="cls-32" x1="1700.32" y1="375.85" x2="1700.32" y2="396.65"/>
          <line class="cls-3" x1="1700.32" y1="399.47" x2="1700.32" y2="439.39"/>
          <line class="cls-21" x1="1700.32" y1="442.2" x2="1700.32" y2="453.83"/>
        </g>
        <g>
          <line class="cls-21" x1="1715.01" y1="361.04" x2="1715.01" y2="372.67"/>
          <line class="cls-24" x1="1715.01" y1="378.1" x2="1715.01" y2="398.2"/>
          <line class="cls-20" x1="1715.01" y1="400.92" x2="1715.01" y2="439.49"/>
          <line class="cls-21" x1="1715.01" y1="442.2" x2="1715.01" y2="453.83"/>
        </g>
        <g>
          <line class="cls-21" x1="1688.08" y1="357.37" x2="1688.08" y2="369"/>
          <line class="cls-12" x1="1688.08" y1="374.72" x2="1688.08" y2="395.88"/>
          <line class="cls-29" x1="1688.08" y1="398.74" x2="1688.08" y2="439.34"/>
          <line class="cls-21" x1="1688.08" y1="442.2" x2="1688.08" y2="453.83"/>
        </g>
      </g>
      <line class="cls-15" x1="1688.08" y1="362.98" x2="1688.08" y2="376.1"/>
      <line class="cls-15" x1="1700.32" y1="297.18" x2="1700.32" y2="310.3"/>
      <line class="cls-15" x1="1715.01" y1="219.02" x2="1715.01" y2="256.69"/>
    </g>
    <g>
      <path class="cls-49" d="m294.35,309.29c2.36,4.24,4.86,9.36,7.33,15.48.59,1.46,1.23,2.88,1.9,4.29-2.6,1.61.84,5.63,5.5,9.61,1.83,2.75,3.83,5.4,5.97,7.95-44.13-11.09,4.78,13.84,4.78,13.84-57.61,8.29-1.1,18.92-1.1,18.92-69.31,6.41,3.96,17.34,3.96,17.34-56.6-1.56-7.32,12.62,1.42,15.04-.68.18-1.29.36-1.83.54-48.18,3.35-8.69,15.46,4.51,19.09-3.26,1.08-5.09,2.07-5.83,2.96-52.32,11.25,14.73,15.3,14.73,15.3-6.57,1.3-14.04,4.6-16.1,5.69l212.04-.58c-.99-10.26-2.21-21.73-3.49-30.67-4.6-32.11-22.99-55.25-27.59-60.62-2.64-3.09-7.69-11.62-11.58-20.36,1.41-.33,2.86-.67,4.34-1.03,15.14-3.69,25.76-16.15,31.35-25.36,7.14-4.1,7.92-12.33,6.4-13.47-1.53-1.15-14.73,5.92-14.73,5.92-1.84.51-3.77.94-5.77,1.17-9.77,1.15-19.54-1.15-31.04-4.6-.22-.07-.43-.16-.65-.23.01-.2.03-.39.03-.59,0-.46-.04-.91-.1-1.35.02-1.02-.22-1.83-.67-2.48-.19-.44-.41-.86-.66-1.26.95.16,1.5.33,1.5.33,0,0-1.33-6.54-13.94-6.84-1.25-.03-2.47.19-3.64.6-.83-.84-1.73-1.62-2.7-2.33,3.42-5.84,2.19-6.71-.31-5.81,15.55-28.36-5.87-12.74-5.87-12.74,5.88-42.43-19.04-2.13-19.04-2.13-6.26-48.43-8.37-.14-8.37-.14-16.95-41.01-14.46,1.56-14.46,1.56-23.3-61.22-13.09,4.54-13.09,4.54-27.47-51.37-11.95,5.47-11.95,5.47-18.32-44-7.82,5.02-7.82,5.02-27.17-38.87-10.92,5.35-10.92,5.35-45.11-59.92-10.81,6.39-10.81,6.39-24.58-24.52-6.67,5.94-6.67,5.94-45.68-26.43-8.99,13.51-8.99,13.51-52.6-24.65-19.59,5.27-10.84,12.87-8.94-3.93-16.63-7.96-19.2-10.53-5.08-5.08-8.73-10.69-9.95-14.13-.09-.32-.18-.65-.31-.98-.27-.12-.22-2.86-.08-4,.64-2.63-1.13-11.47-3.79-11.06-.38.05.46,6.64.21,6.89-.97.93-3.77-1.43-4.47-2.58-2.78-4.39-5-12.34-6.64-11-.62.44,1.71,7.69,3.68,11.93-1.98.07-5.61-12.36-8.14-10.27-.56.32,3.55,9.92,5.04,12.2-2.75-1.83-5.57-7.04-6.83-6.09-1.74,1.23,10.8,14.21,15.29,17.51Z"/>
      <g>
        <g class="cls-61">
          <path class="cls-47" d="m642.17,455.29c-5.09-19.6-17.62-33.03-31.86-48.3-23.27-24.95-50.87-54.53-56.55-122.95l3.6-.36c5.61,67.3,32.72,96.35,55.58,120.86,14.4,15.44,27.66,29.65,32.86,50.8l-3.62-.05Z"/>
        </g>
        <path class="cls-40" d="m531.44,368.99c-3.54-15.61-36.01-24.93-21.64-49.45,17.7,9.59,39.36-46.96,46.96-64.02,3.13-7.03,9.78.96,5.68,8.54-16.25,29.95-30.4,86.86-20.66,125.98-3.97-5.48-8.74-15.28-10.33-21.05Z"/>
        <path class="cls-33" d="m531.44,368.99c-3.54-15.61-12.4-36.5-21.64-49.45,17.7,9.59,39.36-46.96,46.96-64.02,3.13-7.03,13.32-2.26,8.51,4.89-19.84,29.48-33.23,90.51-23.5,129.63-3.97-5.48-8.74-15.28-10.33-21.05Z"/>
        <path class="cls-46" d="m674.25,455.36c-6.72-22.49-22.07-35.28-39.79-50.04-34.53-28.76-77.49-64.56-79.22-192.41l3.59-.05c1.71,126.2,43.97,161.41,77.93,189.7,17.89,14.9,34.2,28.49,41.13,52.8h-3.65Z"/>
        <path class="cls-46" d="m543.16,204.69h23.48c1.93,0,3.5,1.57,3.5,3.5h0c0,1.93-1.57,3.5-3.5,3.5h-23.48v-7h0Z" transform="translate(740.48 -356.97) rotate(87.51)"/>
        <path class="cls-39" d="m550.24,188.65h9.87c.81,0,1.47.66,1.47,1.47h0c0,.81-.66,1.47-1.47,1.47h-9.87v-2.94h0Z" transform="translate(390.1 753.76) rotate(-92.49)"/>
        <ellipse class="cls-46" cx="556.08" cy="194.76" rx="3.49" ry="1.99" transform="translate(-10.76 33.98) rotate(-3.47)"/>
        <path class="cls-40" d="m562.43,264.06c4.1-4.48,5.5-14.33,1.16-20.21-.38-.51-2.14-6.84-3.85-6.42-1.71.42,1.6,5.3.97,4.98-2.06-1.04-5,.29-5.8,1.4-.51.71.33,2.4,1.28,1.84.46-.27-.68,1.39-.63,2.1.21,3.15,1.46,6.41,2.99,6.63,3.36.49,3.89,9.68,3.89,9.68Z"/>
      </g>
      <g>
        <g>
          <path class="cls-56" d="m331.09,455.38c1.7-2.61,10.84-6.98,33-14.06,0,0-39.1-4.15-4.32-11.03,0,0-74.66-4.5-4.99-17.23,0,0-67.62-16.75-5.32-20.32,0,0-64.53-17.09-2.7-15.38,0,0-73.26-10.92-3.96-17.34,0,0-56.52-10.63,1.1-18.92,0,0-54.16-27.61,2.91-11.81,0,0-50.48-32.18,8.77-15.57,0,0-50.96-42.58,8.88-14.54,0,0-36.69-39.93,8.99-13.51,0,0-17.9-30.46,6.67-5.94,0,0-34.3-66.31,10.81-6.39,0,0-16.25-44.22,10.92-5.35,0,0-10.5-49.02,7.82-5.02,0,0-15.52-56.84,11.95-5.47,0,0-10.21-65.77,13.09-4.54,0,0-2.49-42.57,14.46-1.56,0,0,2.12-48.29,8.37.14,0,0,24.92-40.29,19.04,2.13,0,0,25.19-18.38,1.19,20.77,0,0-57.66-11.56-82.25,31.84-24.58,43.39-23.15,83.77-6.21,136.49,1.47,4.57,2.93,8.73,4.38,12.5l-62.62.1Z"/>
          <path class="cls-51" d="m363.61,455.32c.78-2.16,6.32-5.36,20.18-10.07,0,0-73.01,7.86-5.91-13.6,0,0-33.3-3.53-3.68-9.39,0,0-63.59-3.84-4.25-14.67,0,0-57.59-14.27-4.53-17.31,0,0-54.95-14.55-2.3-13.1,0,0-62.4-9.3-3.37-14.76,0,0-48.13-9.06.93-16.12,0,0-46.13-23.51,2.48-10.05,0,0-42.99-27.41,7.47-13.26,0,0-43.4-36.26,7.57-12.38,0,0-31.24-34.01,7.66-11.5,0,0-15.25-25.94,5.68-5.06,0,0-29.21-56.47,9.2-5.44,0,0-13.84-37.66,9.3-4.56,0,0-8.94-41.75,6.66-4.28,0,0-13.22-48.41,10.18-4.65,0,0-8.7-56.01,11.15-3.87,0,0-2.12-36.26,12.32-1.33,0,0,1.8-41.13,7.13.12,0,0,21.22-34.32,16.21,1.81,0,0,27.3-21.15-3.43,17.73,0,0-44.67-9.88-65.61,27.07-20.94,36.96-37.12,81.44-5.29,116.25,9.06,9.91,15.49,16.87,19.81,22.44l-55.57-.02Z"/>
          <path class="cls-58" d="m367.48,447.6c.36,1.96,8.01,2.23,17.1.6,9.09-1.63,16.16-4.53,15.81-6.49-.36-1.96-8.02-2.23-17.1-.6-9.09,1.62-16.17,4.53-15.81,6.49Z"/>
          <path class="cls-58" d="m359,417.35c.34,1.96,7.99,2.3,17.09.76,9.1-1.54,16.21-4.37,15.86-6.33-.34-1.96-7.99-2.3-17.1-.76-9.1,1.54-16.21,4.37-15.86,6.33Z"/>
          <path class="cls-58" d="m348.33,360.74c-.2,1.98,7.1,4.34,16.29,5.27,9.19.93,16.8.08,16.99-1.89.2-1.98-7.1-4.34-16.29-5.27-9.19-.93-16.8-.09-16.99,1.89Z"/>
          <path class="cls-58" d="m358.24,325.55c-.19,1.98,7.1,4.34,16.29,5.27,9.19.93,16.8.08,16.99-1.89.2-1.98-7.1-4.34-16.29-5.27-9.19-.93-16.8-.09-16.99,1.89Z"/>
          <path class="cls-58" d="m378.23,291.33c-1.49,1.32,2.27,8.01,8.4,14.92,6.13,6.91,12.3,11.45,13.78,10.12,1.49-1.32-2.27-8.01-8.4-14.92-6.12-6.91-12.29-11.45-13.78-10.12Z"/>
          <path class="cls-58" d="m408.46,277.35c-1.43.54-.56,6.37,1.94,13.04,2.5,6.66,5.68,11.62,7.11,11.09,1.43-.54.56-6.37-1.94-13.04-2.5-6.66-5.68-11.63-7.11-11.08Z"/>
          <path class="cls-58" d="m437.53,262.39c-1.52.14-2.25,6.01-1.64,13.11.62,7.1,2.35,12.75,3.87,12.61,1.52-.13,2.25-6,1.64-13.11-.62-7.1-2.35-12.75-3.87-12.61Z"/>
          <path class="cls-58" d="m465.18,266.23c-1.38-.66-5,4.02-8.08,10.44-3.09,6.43-4.47,12.17-3.09,12.82,1.38.66,5-4.02,8.09-10.44,3.09-6.42,4.47-12.17,3.09-12.82Z"/>
          <path class="cls-59" d="m384.45,455.34c3.07-2.19,8.29-5.35,16.41-9.77,0,0-48.52,2.22-6.55-12.05,0,0-61.55,6.62-4.98-11.47,0,0-28.08-2.98-3.1-7.92,0,0-53.61-3.23-3.58-12.37,0,0-48.55-12.03-3.82-14.59,0,0-46.33-12.27-1.94-11.04,0,0-52.6-7.84-2.84-12.45,0,0-40.58-7.63.79-13.59,0,0-38.89-19.82,2.09-8.48,0,0-36.24-23.1,6.3-11.18,0,0-36.59-30.57,6.38-10.44,0,0-26.34-28.67,6.46-9.7,0,0-12.86-21.87,4.79-4.27,0,0-24.63-47.61,7.76-4.59,0,0-11.67-31.75,7.84-3.84,0,0-7.54-35.2,5.61-3.6,0,0-11.14-40.81,8.58-3.92,0,0-7.33-47.22,9.4-3.26,0,0-1.79-30.56,10.38-1.12,0,0,1.52-34.67,6.01.1,0,0,17.89-28.93,13.67,1.53,0,0,23.02-17.83-2.89,14.94,0,0-37.66-8.33-55.31,22.82-4.35,7.67-8.85,16.07-12.68,24.7-11.71,26.42-17.03,54.97,8.18,71.18,23.73,15.25,25.29,26.01,21.91,34.15l-44.86.2Z"/>
          <path class="cls-58" d="m425.18,415.59s6-4.59-1.56-14.46c0,0,7.54,1.04,1.65-6.22,0,0,10.64.71,3.71-12.47,0,0,13.21,1.36,3.25-9.17,0,0,8.49,5.59,8.13-6.45,0,0,10.15-.63,2.13-10.45,0,0,16.38-3.16,7.04-16.55,0,0,10.56-1.14,1.06-11.72,0,0,16.86,5.62,2.57-6.31,0,0,9.54-1.96,4.68-12.58,0,0,6.81,7.16,7.92-4.1,0,0,16.8-32.22-2.27-13.63,0,0,8.38-27.37-9.36.48,0,0-4.42-19.49-9.08,1.91,0,0-16.76-17.7-10.21,4.35,0,0-19.06-17.45-8.64,6.04,0,0-29.86-18.61-10.93,6.28,0,0-23.52-11.4-5.79,6.66,0,0-23.92-10.89-6.09,8.09,0,0-30.22-21.89-4.73,7.91,0,0-36.84-5.76-5.48,9.44,0,0-32.45-8.12-3.04,10.54,0,0-18.36,1.98-3.55,10.13,0,0-36.33,7.62-1.82,9.02,0,0-40.49,3.43-.24,10.71,0,0-22.69.58-.85,9.38,0,0-26.79,5.67.94,8.72,0,0-21.77,8.25,5.75,7.67,0,0-23.59,20.72,7.8,10.37,0,0-23.63,17.44,5.07,4.12,0,0-15.69,14.54,3.88,3.91,0,0-5.8,25.53,7.54,2.74,0,0-.37,12.69,2.11,13.01,5.59.71,2.89-16.22,2.89-16.22,0,0,16.27-4.77,15.5-9.21-.43-2.5-9.96-1.95-9.96-1.95Z"/>
          <path class="cls-37" d="m385.23,390.3c-.05,1.61,4.94,3.07,11.14,3.26,6.2.19,11.27-.96,11.32-2.57.05-1.61-4.94-3.08-11.14-3.27-6.2-.19-11.27.96-11.32,2.57Z"/>
          <path class="cls-37" d="m379.51,349.42c-.24,1.24,5.34,3.35,12.45,4.72,7.11,1.37,13.08,1.47,13.31.24.24-1.24-5.34-3.36-12.45-4.73-7.12-1.37-13.08-1.48-13.32-.23Z"/>
          <path class="cls-37" d="m380.55,376.67c-.23,1.59,4.56,3.61,10.7,4.49,6.13.89,11.29.31,11.52-1.28.23-1.6-4.56-3.61-10.7-4.49-6.13-.89-11.29-.31-11.52,1.28Z"/>
          <path class="cls-37" d="m398.27,373.02c-.23,1.6,4.56,3.61,10.7,4.5,6.14.89,11.29.31,11.52-1.28.23-1.6-4.56-3.61-10.7-4.49-6.14-.89-11.29-.31-11.52,1.28Z"/>
          <path class="cls-37" d="m378.62,368.77c.29,1.58,6.49,1.8,13.84.48,7.36-1.32,13.08-3.67,12.79-5.25-.29-1.59-6.49-1.8-13.84-.49-7.36,1.32-13.08,3.67-12.79,5.26Z"/>
          <path class="cls-59" d="m387.84,385.5c.35.97,4.62.32,9.55-1.44,4.93-1.76,8.64-3.98,8.29-4.94-.35-.97-4.62-.32-9.55,1.44-4.93,1.76-8.64,3.97-8.29,4.94Z"/>
          <path class="cls-59" d="m388.42,357.83c-.46,1.15,3.11,3.66,7.97,5.59,4.86,1.93,9.17,2.56,9.62,1.41.46-1.15-3.11-3.66-7.97-5.59-4.86-1.93-9.17-2.56-9.62-1.41Z"/>
          <path class="cls-59" d="m395.2,345.42c-.81.94,1.06,3.86,4.16,6.53,3.1,2.67,6.27,4.07,7.07,3.14.8-.94-1.06-3.86-4.16-6.53-.16-.14-.32-.27-.48-.4-2.95-2.41-5.83-3.63-6.59-2.74Z"/>
          <path class="cls-59" d="m440.11,316.52c-.76.88.72,3.37,3.29,5.57,2.57,2.2,5.27,3.26,6.03,2.38.76-.88-.72-3.37-3.29-5.57-.13-.11-.26-.22-.4-.33-2.45-1.97-4.92-2.89-5.63-2.06Z"/>
          <path class="cls-59" d="m410.11,382.59c-.81.94,1.06,3.86,4.16,6.53,3.1,2.67,6.27,4.07,7.07,3.14.8-.94-1.06-3.86-4.16-6.53-.16-.14-.32-.27-.48-.4-2.94-2.41-5.83-3.63-6.59-2.74Z"/>
          <path class="cls-59" d="m437.3,298.87c-1.24.02-2.18,3.36-2.1,7.45.07,4.09,1.13,7.39,2.37,7.37,1.24-.03,2.18-3.36,2.1-7.45-.07-4.09-1.13-7.39-2.37-7.37Z"/>
          <path class="cls-59" d="m435.63,345.95c-1.24.02-2.18,3.36-2.1,7.45.07,4.09,1.14,7.39,2.37,7.37,1.24-.02,2.18-3.36,2.1-7.45-.07-4.09-1.13-7.39-2.37-7.37Z"/>
          <path class="cls-59" d="m454.86,299.33c-.56-.49-3.22,1.61-5.94,4.7-2.72,3.09-4.47,6-3.91,6.49.56.49,3.22-1.61,5.94-4.7,2.72-3.09,4.47-5.99,3.91-6.49Z"/>
          <path class="cls-59" d="m417.23,307.34c-.81.93,1.06,3.86,4.16,6.53,3.1,2.67,6.27,4.07,7.07,3.13.8-.94-1.06-3.86-4.16-6.53-3.1-2.67-6.27-4.07-7.07-3.14Z"/>
          <path class="cls-37" d="m463.97,302.15c-.93-.81-3.86,1.04-6.54,4.14-2.68,3.09-4.09,6.26-3.16,7.06.94.81,3.86-1.04,6.54-4.14,2.68-3.09,4.1-6.25,3.16-7.06Z"/>
          <path class="cls-59" d="m403.59,412.71c.34.97,3.22.83,6.43-.31,3.2-1.14,5.52-2.86,5.18-3.83-.34-.97-3.22-.83-6.42.31-3.2,1.14-5.52,2.86-5.18,3.83Z"/>
          <path class="cls-59" d="m399.05,342.54c.34.97,3.22.83,6.42-.31,3.2-1.14,5.52-2.85,5.18-3.82-.35-.97-3.22-.83-6.43.31-3.2,1.14-5.52,2.85-5.18,3.83Z"/>
          <path class="cls-59" d="m409.67,345.92c-.18,1.01,2.39,2.31,5.75,2.89,3.36.59,6.22.24,6.4-.77.18-1.01-2.4-2.31-5.75-2.89-3.36-.59-6.22-.24-6.4.77Z"/>
          <path class="cls-59" d="m417.6,376.99c.34.97,3.22.83,6.42-.31,3.2-1.14,5.52-2.86,5.18-3.82-.35-.97-3.22-.83-6.43.31-3.2,1.14-5.52,2.86-5.18,3.83Z"/>
          <path class="cls-59" d="m454.07,305.97c-.71.1-1.01,2.14-.67,4.54.35,2.4,1.21,4.27,1.92,4.16.72-.1,1.02-2.14.67-4.54-.35-2.4-1.2-4.27-1.92-4.16Z"/>
          <path class="cls-59" d="m460.7,293.47c-.69-.21-1.85,1.5-2.58,3.83-.74,2.33-.78,4.39-.09,4.61.69.22,1.85-1.5,2.58-3.83.74-2.33.77-4.39.08-4.61Z"/>
          <path class="cls-59" d="m405.61,327.03c-.31.99,2.07,2.6,5.33,3.61,3.25,1.01,6.13,1.02,6.44.03.31-.99-2.08-2.6-5.32-3.61-3.25-1-6.13-1.02-6.44-.03Z"/>
          <path class="cls-59" d="m414.15,315.97c-.99.28-.89,3.65.22,7.54,1.11,3.89,2.81,6.81,3.8,6.53.99-.28.89-3.65-.22-7.54-1.11-3.89-2.81-6.81-3.8-6.53Z"/>
          <path class="cls-59" d="m400.33,369.03c-.54.87,1.8,3.3,5.24,5.43,3.43,2.13,6.65,3.15,7.19,2.29.54-.87-1.8-3.3-5.24-5.43-3.43-2.13-6.65-3.15-7.19-2.28Z"/>
          <path class="cls-59" d="m424.38,322.76c-.92.45-.21,3.74,1.57,7.36,1.78,3.62,3.97,6.19,4.88,5.75.92-.45.21-3.74-1.57-7.36-1.78-3.62-3.97-6.19-4.88-5.74Z"/>
          <path class="cls-59" d="m396.37,399.68c.34.97,3.22.83,6.43-.31,3.2-1.14,5.52-2.86,5.18-3.83-.34-.97-3.22-.83-6.42.31-3.2,1.14-5.52,2.86-5.18,3.83Z"/>
          <path class="cls-37" d="m397.25,406.02c-.05,1.61,4.26,3.05,9.63,3.22,5.37.17,9.76-1.01,9.81-2.62.05-1.61-4.26-3.05-9.63-3.22-5.37-.16-9.76,1.01-9.81,2.62Z"/>
          <path class="cls-37" d="m420.18,344.83c.44,1.55,4.99,1.61,10.16.12,5.17-1.48,9.01-3.95,8.57-5.5-.44-1.55-4.99-1.61-10.16-.13-5.17,1.49-9.01,3.95-8.57,5.5Z"/>
          <path class="cls-37" d="m407.87,358.5c-.24,1.59,3.87,3.53,9.19,4.33,5.32.8,9.83.15,10.08-1.44.24-1.59-3.87-3.53-9.19-4.32-5.32-.8-9.83-.16-10.08,1.43Z"/>
          <path class="cls-37" d="m429.49,320.38c-.78,1.02,2.04,4.5,6.31,7.77,4.27,3.27,8.37,5.09,9.15,4.07.78-1.02-2.04-4.5-6.31-7.77-4.27-3.27-8.37-5.1-9.15-4.08Z"/>
          <path class="cls-37" d="m397.2,327.1c-1.05,1.16,1.62,5.28,5.98,9.2,4.35,3.92,8.73,6.16,9.78,5,1.05-1.16-1.62-5.28-5.98-9.2-4.35-3.92-8.73-6.16-9.78-5Z"/>
          <path class="cls-37" d="m447.64,296.17c-1.14-.18-2.64,3.46-3.34,8.12-.7,4.66-.33,8.58.81,8.76,1.15.18,2.64-3.46,3.34-8.12.7-4.66.34-8.59-.81-8.76Z"/>
          <path class="cls-37" d="m402.38,316.43c-1.05,1.16,1.62,5.28,5.97,9.2,4.35,3.92,8.74,6.16,9.78,5,1.05-1.16-1.62-5.28-5.98-9.2-4.35-3.92-8.73-6.16-9.78-5Z"/>
          <path class="cls-37" d="m423.03,300.49c-1.05,1.16,1.62,5.28,5.98,9.2,4.35,3.92,8.73,6.16,9.79,5,1.05-1.16-1.62-5.28-5.98-9.2-4.35-3.92-8.73-6.16-9.78-5Z"/>
          <path class="cls-37" d="m406.76,312.66c-.24,1.24,5.34,3.35,12.45,4.72,7.11,1.37,13.08,1.47,13.31.23.24-1.24-5.34-3.35-12.45-4.73-7.11-1.37-13.08-1.47-13.31-.23Z"/>
          <path class="cls-59" d="m410.46,401.18c.34.97,3.22.83,6.42-.31,3.2-1.14,5.52-2.86,5.18-3.83-.35-.97-3.22-.83-6.42.31-3.21,1.14-5.52,2.86-5.18,3.83Z"/>
          <path class="cls-59" d="m420.83,357.06c-.81.94,1.06,3.86,4.16,6.53,3.1,2.67,6.27,4.07,7.07,3.14.8-.93-1.06-3.86-4.16-6.53-.16-.14-.32-.27-.48-.4-2.94-2.41-5.83-3.62-6.59-2.74Z"/>
          <path class="cls-59" d="m412.05,356c-.99.28-.89,3.65.22,7.54,1.11,3.88,2.81,6.81,3.8,6.53.99-.28.89-3.65-.22-7.54-1.11-3.89-2.81-6.81-3.8-6.53Z"/>
          <path class="cls-59" d="m419.33,334.98c-.8.94,1.06,3.86,4.16,6.53,3.1,2.67,6.27,4.07,7.07,3.14.81-.94-1.06-3.86-4.16-6.53-3.1-2.67-6.27-4.07-7.07-3.14Z"/>
          <path class="cls-59" d="m435.66,340.89c-.18,1.01,2.4,2.3,5.75,2.89,3.36.58,6.22.24,6.4-.77.18-1.01-2.4-2.31-5.75-2.89-3.36-.59-6.23-.24-6.4.77Z"/>
          <path class="cls-59" d="m436.95,321.98c-.99.28-.89,3.65.22,7.54,1.11,3.89,2.81,6.81,3.8,6.53.99-.28.89-3.65-.22-7.54-1.11-3.89-2.81-6.81-3.8-6.53Z"/>
        </g>
        <path class="cls-38" d="m469.16,287.89l-14.33-4.24,1.95-22.79c1.85-6.24,8.4-9.8,14.64-7.95h0c6.24,1.85,9.8,8.4,7.95,14.64l-10.22,20.35Z"/>
        <path class="cls-38" d="m552.23,404.73c-4.6-32.12-22.99-55.25-27.59-60.62-4.6-5.36-16.48-27.21-16.86-37.94-.38-10.73-11.88-16.48-19.93-28.74-8.05-12.26-29.41-13.51-48.38-9.2-18.97,4.31-34.49,24.72-37.36,35.06-1.92,6.92-7.88,23.82-12.45,27.3-4.38,17.87-1.53,26.43,1.36,44.71.76,6.88,1.59,17.96,3.16,25.89,2.07,16.78,2.3,35.82.69,54.13h162.49c-.99-17.47-2.98-35.49-5.14-50.61Z"/>
        <path class="cls-38" d="m471.41,281.21s-.57-7.47,6.32-9.2,14.37,10.92,25.87,14.37c11.5,3.45,21.27,5.75,31.04,4.6s18.34-6.9,18.65-4.02c.32,2.87-12.33,29.89-35.9,35.64-23.57,5.75-38.06,7.47-55.24-13.22-17.18-20.69-21.78-24.72-12.58-28.16,9.2-3.45,21.84,0,21.84,0Z"/>
        <path class="cls-63" d="m471.41,281.35s-.57-7.47,6.32-9.2c6.9-1.72,14.37,10.92,25.87,14.37,11.5,3.45,21.27,5.75,31.04,4.6s18.34-6.9,18.65-4.02-12.33,29.89-35.9,35.64-38.06,7.47-55.24-13.22c-17.18-20.69-21.78-24.72-12.58-28.16,9.2-3.45,21.84,0,21.84,0Z"/>
        <path class="cls-36" d="m540.41,289.81s13.2-7.07,14.73-5.92.74,9.48-6.53,13.55c-7.27,4.07-8.2-7.64-8.2-7.64Z"/>
        <circle class="cls-54" cx="529.81" cy="301.33" r="2.2"/>
        <circle class="cls-54" cx="525.45" cy="305.78" r="1.15"/>
        <circle class="cls-54" cx="531.06" cy="306.93" r="1.66"/>
        <g>
          <circle class="cls-39" cx="457.05" cy="297.59" r="12.03"/>
          <circle class="cls-53" cx="457.05" cy="297.59" r="8.35" transform="translate(-80.81 207.23) rotate(-23.53)"/>
          <path class="cls-66" d="m464.57,297.59c0,4.15-3.37,7.52-7.52,7.52s-7.52-3.37-7.52-7.52,3.37,3.74,7.52,3.74,7.52-7.9,7.52-3.74Z"/>
          <circle class="cls-52" cx="457.05" cy="297.59" r="6.09" transform="translate(91.61 702.45) rotate(-81)"/>
          <circle class="cls-39" cx="459.86" cy="295.2" r=".92"/>
          <path class="cls-35" d="m465.75,291.07s2.77,6.93.51,12.84c4.11-7.75,3.18-11.21-.51-12.84Z"/>
        </g>
        <g>
          <circle class="cls-39" cx="493.12" cy="285.56" r="9.85"/>
          <circle class="cls-53" cx="493.12" cy="285.56" r="6.84" transform="translate(-73 220.63) rotate(-23.53)"/>
          <path class="cls-66" d="m499.28,285.56c0,3.4-2.76,6.16-6.16,6.16s-6.16-2.76-6.16-6.16,2.76,3.07,6.16,3.07,6.16-6.47,6.16-3.07Z"/>
          <circle class="cls-52" cx="493.12" cy="285.56" r="4.99" transform="translate(133.92 727.94) rotate(-81)"/>
          <circle class="cls-39" cx="495.43" cy="283.6" r=".75"/>
          <path class="cls-35" d="m500.25,280.22s2.27,5.67.42,10.52c3.36-6.34,2.61-9.18-.42-10.52Z"/>
        </g>
        <path class="cls-39" d="m512.98,323.59s-26.23,6.15-49.84-3.04c-23.61-9.2,10.63,60.11,49.84,3.04Z"/>
        <path class="cls-38" d="m423.57,288.63l-8.68,12.17-20.91-9.27c-5.3-3.78-6.53-11.14-2.75-16.44h0c3.78-5.3,11.14-6.53,16.44-2.75l15.91,16.29Z"/>
        <path class="cls-44" d="m414.67,283.6s-9.05-12.05-15.66-8.36c-6.61,3.69-5.11,10.79-2.69,12.65,2.42,1.86,11.35,4.51,11.35,4.51l6.99-8.8Z"/>
        <path class="cls-44" d="m459.59,265.43s-1.58-7.73,4.67-8.91c6.26-1.17,8.74.47,10.73,2.58,1.99,2.11,1.99,6.73,0,8.53-1.99,1.8-15.4-2.2-15.4-2.2Z"/>
        <path class="cls-38" d="m465.75,288.15s-12.34-.1-21.01,13.81c-8.67,13.91-6.46-12.84,5.68-16.26,12.14-3.41,15.33,2.44,15.33,2.44Z"/>
        <path class="cls-38" d="m503.05,280.8s-11.76-3.72-24.14,7.03c-12.38,10.75-2.4-14.17,10.21-13.87,12.61.31,13.94,6.84,13.94,6.84Z"/>
        <path class="cls-62" d="m467.58,288.07s-12.3-.97-21.93,12.31c-9.63,13.27-5.54-13.26,6.8-15.82,12.35-2.55,15.12,3.51,15.12,3.51Z"/>
        <path class="cls-64" d="m503.05,280.8s-11.76-3.72-24.14,7.03c-12.38,10.75-2.4-14.17,10.21-13.87,12.61.31,13.94,6.84,13.94,6.84Z"/>
        <path class="cls-65" d="m506.9,349.09s35.4,22.93,40.34,69.99c1.71,16.23.42,28.49-4.82,36.75l-122.16-.51c18.22-48.31,41.06-107.37,86.63-106.23Z"/>
        <path class="cls-38" d="m399.41,368.11c-9.16-16.08.35-33.01-1.87-51.27-1.51,2.42-4.37,6.1-6.33,6.84-5.91,2.23-49.85-15.24-56.77-22.16-5.08-5.08-8.73-10.69-9.95-14.13-.09-.32-.18-.65-.31-.98-.27-.12-.22-2.86-.08-4.01.64-2.63-1.13-11.47-3.79-11.06-.38.05.46,6.65.21,6.89-.97.93-3.77-1.43-4.47-2.58-2.78-4.39-5-12.35-6.64-11-.62.44,1.71,7.69,3.68,11.93-1.98.07-5.61-12.36-8.14-10.27-.56.32,3.55,9.93,5.04,12.2-2.75-1.83-5.57-7.04-6.83-6.09-1.74,1.23,10.8,14.21,15.29,17.51,2.36,4.24,4.86,9.36,7.33,15.48,9.98,24.8,32.56,41.46,56.75,57.52,8.79,5.84,17.14,17.18,24.5,31.19-.89-7.77-4.47-19.85-7.61-26.01Z"/>
        <path class="cls-34" d="m399.41,368.11c-9.16-16.08.35-33.01-1.87-51.27-1.51,2.42-4.37,6.1-6.33,6.84-5.91,2.23-49.85-15.24-56.77-22.16-5.08-5.08-8.73-10.69-9.95-14.13-.09-.32-.18-.65-.31-.98-.27-.12-.22-2.86-.08-4.01.64-2.63-1.13-11.47-3.79-11.06-.38.05.46,6.65.21,6.89-.97.93-3.77-1.43-4.47-2.58-2.78-4.39-5-12.35-6.64-11-.62.44,1.71,7.69,3.68,11.93-1.98.07-5.61-12.36-8.14-10.27-.56.32,3.55,9.93,5.04,12.2-2.75-1.83-5.57-7.04-6.83-6.09-1.74,1.23,10.8,14.21,15.29,17.51,2.36,4.24,4.86,9.36,7.33,15.48,9.98,24.8,32.56,41.46,56.75,57.52,8.79,5.84,17.14,17.18,24.5,31.19-.89-7.77-4.47-19.85-7.61-26.01Z"/>
      </g>
    </g>
    <g>
      <g>
        <path class="cls-55" d="m954.48,455.36c-4.63-9.82-8.94-19.77-12.92-29.82-4.03-10.18-8.42-22.08-9.5-34.58-2.32-26.94,15.91-49.18,32.06-65.55,6.29-6.38,8.63-12.25,6.96-17.45-2.63-8.18-15.14-13.78-23.18-15.15l.6-3.54c5.98,1.02,22.32,6.17,26,17.6,2.12,6.58-.51,13.68-7.82,21.08-15.61,15.81-33.24,37.23-31.04,62.71,1.04,12.01,5.32,23.62,9.26,33.56,4.16,10.5,8.69,20.9,13.56,31.15h-3.98Z"/>
        <g>
          <path class="cls-60" d="m923.47,283.02h27.85c2.11,0,3.82,1.71,3.82,3.82v.58c0,2.11-1.71,3.82-3.82,3.82h-27.85v-8.22h0Z" transform="translate(193.62 -352.16) rotate(23.61)"/>
          <ellipse class="cls-45" cx="924.86" cy="280.79" rx="4.09" ry="2.33" transform="translate(309.81 1026.39) rotate(-67.37)"/>
          <rect class="cls-39" x="913.23" y="276.85" width="13.31" height="3.46" rx="1.61" ry="1.61" transform="translate(1651.2 902.25) rotate(-156.39)"/>
        </g>
      </g>
      <g>
        <path class="cls-39" d="m694.97,348.17h30.21c2.29,0,4.15,1.86,4.15,4.15v.63c0,2.29-1.86,4.15-4.15,4.15h-30.21v-8.92h0Z" transform="translate(639.68 -438.73) rotate(58.42)"/>
        <ellipse class="cls-41" cx="703.2" cy="338.04" rx="4.44" ry="2.53" transform="translate(-71.41 431.5) rotate(-32.55)"/>
        <rect class="cls-39" x="692.92" y="331.11" width="14.44" height="3.75" rx="1.74" ry="1.74" transform="translate(783.07 1103.83) rotate(-121.58)"/>
      </g>
      <g>
        <path class="cls-46" d="m1290.43,339.76h30.22c2.29,0,4.15,1.86,4.15,4.15v.63c0,2.29-1.86,4.15-4.15,4.15h-30.22v-8.92h0Z" transform="translate(2021.29 -804.26) rotate(107.11)"/>
        <path class="cls-39" d="m1307.22,320.35h12.7c.96,0,1.74.78,1.74,1.74v.26c0,.96-.78,1.74-1.74,1.74h-12.7v-3.75h0Z" transform="translate(619.78 1483.7) rotate(-72.89)"/>
        <ellipse class="cls-46" cx="1312.67" cy="327.86" rx="2.53" ry="4.44" transform="translate(633.02 1497.76) rotate(-73.87)"/>
      </g>
      <path class="cls-57" d="m1328.09,338.43l-.25-.08c-.92-.28-1.9.23-2.18,1.15l-2.68,8.7c-1.53-.05-2.76.45-3.12,1.36l-.06-.02-8.89,28.88c-.64,2.08.45,4.27,2.45,5.06l-1.1-.4c-2.84,7.81-6.96,12.64-12.58,14.78-7.39,2.8-17.11.76-28.14-3.68v3.91c11.31,4.42,21.26,6.23,29.41,3.14,6.66-2.53,11.46-8.06,14.68-16.91l-1.69-.61.3.09c2.19.67,4.51-.56,5.19-2.75l8.89-28.88h0s0,0,0-.01c.28-.96-.47-2.06-1.76-2.87l2.67-8.69c.28-.92-.23-1.9-1.15-2.18Z"/>
    </g>
    <g>
      <path class="cls-46" d="m742.25,455.34c-3.42-13.92.58-24.53,13.08-35.58,7.38-6.52,23.06-9.63,34.65-3.87,8.47,4.21,18.18,13.81,16.24,39.45h3.58c2.09-27.63-8.77-37.97-18.22-42.67-13.3-6.61-30.41-2.87-38.63,4.39-13.26,11.72-17.78,23.45-14.41,38.27h3.7Z"/>
      <path class="cls-46" d="m1300.87,360.02c-2.84,7.81-6.96,12.64-12.58,14.78-14.04,5.33-36.53-6.85-60.35-19.74-22.59-12.23-48.2-26.09-71.28-27.44-11.55-.67-25.8,2.59-27.94,14.02-1.57,8.39,4.42,14.66,10.22,20.72,5.07,5.3,9.85,10.3,10.03,16.53.12,4.19-2.1,7.27-3.98,9.12-3.76,3.7-9.7,5.94-15.14,5.7-9.34-.41-46.39-17.61-56.04-22.44-20.05-10.04-42.48-15.85-64.88-16.82-7.11-.3-11.78,2.01-12.79,6.36-.9,3.91,1.8,7.34,3.92,9.57,4.96,5.23,10.78,10.03,16.41,14.67,13.11,10.8,25.49,21,28.17,36.42.77,4.42.36,8.08-1.2,10.87-3,5.35-9.7,6.73-12.44,7.08-12.21,1.54-25.83-4.98-36.43-17.43-6.04-7.09-10.83-15.37-15.46-23.38-2.56-4.42-5.2-8.99-8.04-13.34-10.12-15.53-21.53-25.05-33.9-28.31-8.48-2.24-18.07-.85-25.66,3.72-6.08,3.66-10.23,9.09-11.69,15.29-1.63,6.94.01,13.88,1.6,20.59,1.39,5.88,2.7,11.43,2.02,16.98-.9,7.28-5.75,13.69-13.31,17.58-9.26,4.77-20.68,4.91-29.08.36-2.99-1.62-6.24-3.2-9.38-4.74-14.74-7.2-29.97-14.65-28.86-29.25,1.44-18.83,12.92-34.49,25.11-48.61,7.37-8.53,7.76-17.86,5.67-23.75-1.82-5.12-5.57-8.54-10.3-9.39-6.4-1.14-13.59,2.63-20.22,10.6-8.43,10.14-12.89,21.33-12.9,32.36,0,3.48-.14,8.01-.28,12.8-.35,11.51-.74,24.55.3,32.7,1.24,9.76,6.36,14.13,10.48,17.64,4.74,4.04,7.87,6.71,4.99,15.77-2.09,6.57-4.58,12.48-7.45,17.75h4.08c2.59-5.02,4.86-10.58,6.79-16.66,3.6-11.33-1.32-15.53-6.08-19.59-4.02-3.43-8.18-6.98-9.25-15.36-1-7.87-.6-21.33-.27-32.14.14-4.82.28-9.37.28-12.9,0-10.18,4.18-20.58,12.06-30.06,5.77-6.94,11.74-10.26,16.82-9.36,3.42.61,6.17,3.18,7.55,7.05,1.75,4.94,1.36,12.84-5,20.2-12.6,14.58-24.46,30.82-25.98,50.68-1.3,17.04,15.79,25.39,30.87,32.75,3.26,1.59,6.33,3.09,9.25,4.68,9.42,5.1,22.15,4.97,32.44-.33,8.63-4.45,14.18-11.86,15.23-20.34.77-6.19-.68-12.32-2.09-18.25-1.56-6.6-3.03-12.83-1.6-18.94,1.58-6.73,6.33-10.8,10.04-13.04,6.67-4.01,15.44-5.28,22.89-3.32,11.48,3.03,22.19,12.05,31.81,26.8,2.79,4.28,5.41,8.8,7.94,13.18,4.71,8.15,9.59,16.58,15.84,23.91,11.39,13.38,26.21,20.36,39.62,18.67,6.94-.87,12.45-4.11,15.12-8.89,1.98-3.53,2.52-7.99,1.61-13.24-2.9-16.73-16.38-27.84-29.42-38.58-5.55-4.57-11.28-9.3-16.08-14.37-2.46-2.6-3.42-4.6-3.03-6.29.84-3.65,7.2-3.66,9.13-3.58,21.9.94,43.83,6.62,63.43,16.44,7.31,3.66,46.71,22.35,57.5,22.82,6.48.28,13.32-2.3,17.82-6.73,3.42-3.37,5.17-7.45,5.05-11.78-.21-7.61-5.71-13.35-11.02-18.91-5.41-5.66-10.52-11-9.29-17.58,1.71-9.13,14.1-11.69,24.2-11.1,22.28,1.3,47.52,14.96,69.78,27.01,25.63,13.87,47.76,25.85,63.33,19.94,6.66-2.53,11.46-8.06,14.68-16.91l-3.38-1.23Z"/>
    </g>
    <g>
      <path class="cls-39" d="m1189.64,418.71c6.1-6.62,10.96-14.96,14.02-23.62,4.21-11.92,4.96-21.76,2.31-30.08-3.09-9.69-12.93-18.72-24.03-17.06-12.51,1.86-19.39,15.69-19.72,28.39-.33,12.8,8.04,28.54,22.3,42.58-8.97,8.25-19.32,11.34-27.9,9.62-12.54-2.51-21.53-13.92-27.2-22.28-2.53-3.73-4.98-7.64-7.34-11.42-6.1-9.75-12.4-19.82-20.82-28.02-10.41-10.14-28.63-19.67-45.71-13.17-4.03,1.53-7.69,3.93-10.84,6.96-14.84.12-29.69,3.22-42.42,8.92-16.23,7.26-28.6,18.44-35.78,32.32-5,9.68-7.73,20.84-10.36,31.63-1.87,7.64-3.7,15.1-6.24,21.9h3.8c2.43-6.75,4.19-13.94,5.93-21.04,2.58-10.59,5.25-21.54,10.06-30.83,9.31-18,33.39-38.12,71.71-39.27-5.39,6.78-8.63,15.67-8.66,24.98-.03,13.48,6.35,27.81,17.53,39.31,6.09,6.27,12.17,8.77,17.57,7.25,6.82-1.92,9.81-9.19,11.83-16.05,7.87-26.66,5.67-43.96-6.74-52.9-6.57-4.74-15.1-5.74-21.79-6.08-.34-.02-.69-.03-1.03-.05,2.06-1.53,4.31-2.78,6.69-3.69,15.5-5.9,32.27,2.98,41.93,12.38,8.11,7.9,14.3,17.79,20.29,27.35,2.38,3.81,4.85,7.75,7.41,11.53,6.03,8.89,15.64,21.02,29.47,23.79,11.57,2.31,22.42-2.43,31.14-10.72,1.65,1.53,3.37,3.03,5.16,4.51,16.4,13.53,37.18,23.56,60.14,29.24l15.93.03c-33.13-6.61-60.99-19.97-78.64-36.41Zm-138.67-54.39c6.58.33,14.09,1.24,19.87,5.4,11.01,7.94,12.78,23.96,5.39,48.97-1.75,5.92-4.22,12.16-9.36,13.61-5.12,1.45-10.45-2.63-14.02-6.29-10.53-10.83-16.54-24.24-16.51-36.79.02-9.6,3.78-18.69,9.84-25.04,1.57.02,3.17.07,4.79.15Zm114.84,12.11c.28-10.92,6.22-23.37,16.65-24.93.69-.1,1.38-.15,2.06-.15,8.28,0,15.63,7.3,18.01,14.76,2.41,7.54,1.66,16.63-2.28,27.79-3.32,9.4-7.92,16.85-13.13,22.42-14.44-14.32-21.6-29.43-21.33-39.88Z"/>
      <path class="cls-39" d="m850.13,455.36h4.35c-.42-.6-.85-1.19-1.24-1.8-11.22-17.41-14.95-40.48-10.11-62.14,11.63,6.14,25.21,8.8,38.29,7.49,6.39-.64,21.89-3.51,27.92-16.27,2.52-5.32,2.66-11.63.4-17.75-2.52-6.84-7.8-12.61-14.12-15.46-11.19-5.03-25.9-2.47-36.61,6.37-8.3,6.84-14.56,17.23-18.2,30.15-3.23-1.97-6.37-4.17-9.43-6.32-6.86-4.8-13.94-9.77-22.15-12.37-16.52-5.23-35.59.59-46.37,14.15-6.99,8.79-6.34,20.74-5.75,31.29.66,12.04,1.23,22.43-8.69,26.22-1.83.7-3.33.65-4.72-.14-6.07-3.44-8.96-19.85-11.77-35.73-3.01-17.06-6.13-34.7-13.73-41.33l-2.36,2.71c6.64,5.8,9.65,22.8,12.55,39.25,3.08,17.46,6,33.96,13.53,38.23,2.33,1.32,4.95,1.45,7.78.37,12.38-4.72,11.68-17.45,11-29.77-.57-10.39-1.16-21.13,4.98-28.85,9.72-12.22,27.59-17.67,42.48-12.96,7.68,2.43,14.23,7.03,21.17,11.89,3.41,2.39,6.9,4.84,10.55,7.01-5.39,22.82-1.57,47.31,10.27,65.78Zm11.16-96.78c9.68-7.99,22.88-10.34,32.85-5.86,5.46,2.46,10.03,7.47,12.23,13.42,1.92,5.21,1.82,10.52-.28,14.97-3.64,7.7-13,13.02-25.03,14.23-12.55,1.26-25.57-1.34-36.67-7.31-.12-.07-.25-.13-.37-.2,2.47-9.13,7.43-21.12,17.28-29.24Z"/>
    </g>
  </g>
</svg>